# xmcd CD database file
#
# Track frame offsets:
#	150
#	15683
#	32725
#	56378
#	77785
#	100655
#	117828
#	135723
#	147113
#	169680
#
# Disc length: 2584 seconds
#
# Revision: 2
# Processed by: cddbd v1.5.2PL0 Copyright (c) Steve Scherf et al.
# Submitted via: CDex 1.77
#
DISCID=790a160a
DTITLE=Roy Rogers - Blues On The Range
DYEAR=1989
DGENRE=Blues
TTITLE0=Black Cat Bone
TTITLE1=Crawfish City
TTITLE2=Blues On The Range
TTITLE3=Baby, Please Don't Go
TTITLE4=You Better Run
TTITLE5=Spanish Blues
TTITLE6=She's Cold As Ice
TTITLE7=Dreamin' At The Juke
TTITLE8=Hellhound On My Trail
TTITLE9=Ramblin' Blues
EXTD=YEAR: 1989
EXTT0=
EXTT1=
EXTT2=
EXTT3=
EXTT4=
EXTT5=
EXTT6=
EXTT7=
EXTT8=
EXTT9=
PLAYORDER=
